<svg xmlns="http://www.w3.org/2000/svg" style="display:none">
  <symbol id="icon-github" viewBox="0 0 24 24">
    <path fill="#fff" d="M12 .297c-6.63 0-12 5.373-12 12 0 5.303 3.438 9.8 8.205 11.385.6.113.82-.258.82-.577 0-.285-.01-1.04-.015-2.04-3.338.724-4.042-1.61-4.042-1.61C4.422 18.07 3.633 17.7 3.633 17.7c-1.087-.744.084-.729.084-.729 1.205.084 1.838 1.236 1.838 1.236 1.07 1.835 2.809 1.305 3.495.998.108-.776.417-1.305.76-1.605-2.665-.3-5.466-1.332-5.466-5.93 0-1.31.465-2.38 1.235-3.22-.135-.303-.54-1.523.105-3.176 0 0 1.005-.322 3.3 1.23.96-.267 1.98-.399 3-.405 1.02.006 2.04.138 3 .405 2.28-1.552 3.285-1.23 3.285-1.23.645 1.653.24 2.873.12 3.176.765.84 1.23 1.91 1.23 3.22 0 4.61-2.805 5.625-5.475 5.92.42.36.81 1.096.81 2.22 0 1.606-.015 2.896-.015 3.286 0 .315.21.69.825.57C20.565 22.092 24 17.592 24 12.297c0-6.627-5.373-12-12-12z"/>
  </symbol>
  <symbol id="icon-codepen" viewBox="-0.5 -0.5 25 25">
    <path fill="#fff" d="M.455 16.512l10.969 6.333a1.15 1.15 0 0 0 1.152 0l10.969-6.333c.356-.207.58-.576.576-.984V8.456a1.145 1.145 0 0 0-.576-.984L12.576 1.148a1.15 1.15 0 0 0-1.152 0L.455 7.474A1.145 1.145 0 0 0-.12 8.456v7.072c0 .408.222.778.576.984Zm10.968 4.315L2.856 16.128 6.945 13.5l4.478 2.636v4.691zm1.152 0v-4.69l4.478-2.637 4.089 2.699-8.567 4.628zM12 14.15l-3.917-2.306L12 9.537l3.917 2.307L12 14.15zm-.576-9.684l8.567 4.629-4.089 2.7-4.478-2.636V4.466zm-1.152 0v4.693L5.794 11.8l-4.089-2.7 8.567-4.633zM.879 9.338l4.089 2.699L.879 14.736V9.338zm22.242 0v5.398l-4.089-2.699 4.089-2.699z"/>
  </symbol>
  <symbol id="icon-linkedin" viewBox="0 0 24 24">
    <path fill="#fff" d="M20.447 20.452h-3.554v-5.569c0-1.328-.027-3.037-1.852-3.037-1.853 0-2.136 1.445-2.136 2.939v5.667H9.351V9h3.414v1.561h.046c.477-.9 1.637-1.85 3.37-1.85 3.601 0 4.267 2.37 4.267 5.455v6.286zM5.337 7.433a2.062 2.062 0 0 1-2.063-2.065 2.064 2.064 0 1 1 2.063 2.065zm1.782 13.019H3.555V9h3.564v11.452zM22.225 0H1.771C.792 0 0 .774 0 1.729v20.542C0 23.227.792 24 1.771 24h20.451C23.2 24 24 23.227 24 22.271V1.729C24 .774 23.2 0 22.222 0h.003z"/>
  </symbol>
  <symbol id="icon-freecodecamp" viewBox="0 0 576 512">
    <path fill="#fff" d="M97.22 96.21c-5.93-3.81-13.64-2.01-17.44 3.91L3.83 219.48a13.14 13.14 0 0 0 0 14.18l75.95 119.36c2.39 3.75 6.41 5.79 10.52 5.79 2.36 0 4.73-.65 6.92-2.01 5.93-3.81 7.7-11.54 3.91-17.44L30.77 226.57l70.37-112.93c3.79-5.9 2.03-13.64-3.92-17.43zm380.26 0c-5.97 3.79-7.7 11.53-3.91 17.44l70.37 112.93-70.37 112.8c-3.79 5.9-2.02 13.63 3.91 17.44 2.19 1.37 4.56 2.01 6.92 2.01 4.1 0 8.13-2.04 10.52-5.79l75.95-119.36a13.14 13.14 0 0 0 0-14.18L481.44 100.12c-3.81-5.92-11.52-7.72-17.44-3.91zm-116.97 240.37c1.17 0 2.37-.16 3.55-.5l99.48-28.48a13.13 13.13 0 0 0 9.22-16.13l-28.48-99.49a13.13 13.13 0 0 0-25.35 7.26l23.11 80.75-80.75 23.11a13.14 13.14 0 0 0 3.67 25.72zm-205.54-28.98l-80.75-23.11 23.11-80.75a13.13 13.13 0 0 0-25.35-7.26l-28.48 99.49a13.13 13.13 0 0 0 9.22 16.13l99.48 28.48c1.18.34 2.37.5 3.55.5a13.14 13.14 0 0 0 3.67-25.72z"/>
  </symbol>
</svg>
